<svg xmlns="http://www.w3.org/2000/svg" version="1.1" xmlns:xlink="http://www.w3.org/1999/xlink" xmlns:svgjs="http://svgjs.com/svgjs" width="100%" height="100%" viewBox="0 0 1000 600"><rect width="1000" height="600" x="0" y="0" fill="#286eff"/><g><circle r="166.66666666666666" cx="419.34533182779944" cy="441.56744534001996" fill="#ffffff" transform="matrix(0.49469959194526,0,0,0.49469959194526,0,81.5567361593147)"/><path d="M290.89321423371723 516.5674699000574L270.7575589939961 516.5674699000574L270.7575589939961 366.5674680463879L302.91994044024756 366.5674680463879L337.02603521280696 463.8746164446784Q338.3319676039201 467.79241361801786 339.75938207792746 472.4998443301698Q341.18679655193483 477.20727504232184 342.37124686015375 481.3680363814497Q343.5860676890962 485.52879772057764 344.22384862429095 488.56584979293376L344.22384862429095 488.56584979293376L345.7727451811926 488.56584979293376Q346.41052611638736 485.2858335547892 347.5038648624356 481.03396065349057Q348.5972036084838 476.782087752192 349.9335065203205 472.1657686022107Q351.23943891143364 467.5798199729529 352.33277765748187 463.8746164446784L352.33277765748187 463.8746164446784L386.4388724300412 366.5674680463879L418.3582897105042 366.5674680463879L418.3582897105042 516.5674699000574L397.58485353558825 516.5674699000574L397.58485353558825 428.6751829260708Q397.58485353558825 421.8721862839931 397.7974471806532 413.91510985442Q398.0404113464417 405.9276629041234 398.2530049915066 399.24614834493985Q398.4655986365715 392.59500430647995 398.4655986365715 389.7401753584652L398.4655986365715 389.7401753584652L396.7041084346049 389.7401753584652Q396.0663274994102 392.59500430647995 394.51743094250855 397.7276223087618Q392.9989049063305 402.8602403110437 391.3588967872582 408.44841612417895Q389.71888866818585 414.0062214165907 388.41295627707274 418.37957640078355L388.41295627707274 418.37957640078355L353.21352275846516 516.5674699000574L335.2645450108404 516.5674699000574L300.0651114922328 418.37957640078355Q298.7591791011196 414.674372872509 297.33176462711225 409.75434851529207Q295.9043501531049 404.83432415807516 294.4769356790975 399.58022407289906Q293.0798917258137 394.32612398772295 291.743588813977 389.7401753584652L291.743588813977 389.7401753584652L290.2250627777989 389.7401753584652Q290.4376564228638 394.53871763278784 290.5591385057581 401.6454194821012Q290.65025006792877 408.75212133141457 290.771732150823 415.85882318072794Q290.89321423371723 422.9655250300413 290.89321423371723 428.6751829260708L290.89321423371723 428.6751829260708L290.89321423371723 516.5674699000574ZM567.9331042740438 516.5674699000574L444.17323232553133 516.5674699000574L444.17323232553133 505.8466760846402L535.1329418925975 384.48607527328903L449.8525197008373 384.48607527328903L449.8525197008373 366.5674680463879L565.9590204270123 366.5674680463879L565.9590204270123 377.28826186180504L474.7867172148812 498.64886267315615L567.9331042740438 498.64886267315615L567.9331042740438 516.5674699000574Z " fill="#286eff" transform="matrix(0.49469959194526,0,0,0.49469959194526,0,81.5567361593147)"/><path d="M688.1378438626634 514.1298227233548L669.3453275602756 514.1298227233548L669.3453275602756 374.1354969051141L699.3623332378453 374.1354969051141L731.1933978043332 464.95182003158567Q732.4122186203252 468.6082824795616 733.7444181168746 473.0017063511606Q735.076617613424 477.3951302227595 736.1820597488586 481.2783500318502Q737.3158465544325 485.1615698409409 737.9110846273588 487.99603685487574L737.9110846273588 487.99603685487574L739.3566628044655 487.99603685487574Q739.9519008773918 484.9348124798261 740.9723090024083 480.9665586603174Q741.992717127425 476.99830484080866 743.2398826135562 472.68991497962776Q744.4587034295482 468.40986978858615 745.4791115545647 464.95182003158567L745.4791115545647 464.95182003158567L777.3101761210528 374.1354969051141L807.1004244375077 374.1354969051141L807.1004244375077 514.1298227233548L787.7126700621935 514.1298227233548L787.7126700621935 432.10034734008116Q787.7126700621935 425.75114122886714 787.911082753169 418.3248376523579Q788.1378401142838 410.87018940570937 788.3362528052592 404.63436197505274Q788.5346654962347 398.4268792145355 788.5346654962347 395.76248022143676L788.5346654962347 395.76248022143676L786.8906746281524 395.76248022143676Q786.2954365552262 398.4268792145355 784.8498583781194 403.2171284680854Q783.4326248711519 408.00737772163524 781.9020126836272 413.22279702727525Q780.3714004961024 418.40987166277597 779.1525796801104 422.49150416284215L779.1525796801104 422.49150416284215L746.3011069886059 514.1298227233548L729.5494069362511 514.1298227233548L696.6979342447465 422.49150416284215Q695.4791134287545 419.03345440584167 694.1469139322053 414.44161784326724Q692.8147144356558 409.8497812806928 691.4825149391065 404.9461533465856Q690.1786601126964 400.04252541247837 688.9314946265652 395.76248022143676L688.9314946265652 395.76248022143676L687.5142611195977 395.76248022143676Q687.7126738105732 400.2409381034538 687.8260524911306 406.87359091606123Q687.9110865015487 413.5062437286687 688.024465182106 420.1388965412762Q688.1378438626634 426.7715493538837 688.1378438626634 432.10034734008116L688.1378438626634 432.10034734008116L688.1378438626634 514.1298227233548ZM865.6888576155403 516.5674643553386L865.6888576155403 516.5674643553386Q859.7648215564166 516.5674643553386 853.8407854972928 515.1502308483714Q847.9167494381691 513.7329973414039 842.8147088130863 510.4450156052395Q837.7126681880037 507.18537853921447 834.6514438129541 501.3747211606481Q831.5902194379045 495.56406378208175 831.5902194379045 486.77721603888375L831.5902194379045 486.77721603888375Q831.5902194379045 475.7511393546773 836.8906727539626 468.6082824795616Q842.2194707401601 461.46542560444584 851.6865905667024 457.4971717849371Q861.182055063384 453.5289179654284 874.2489479976235 451.99830577790357Q887.315840931863 450.46769359037876 902.621962807111 450.46769359037876L902.621962807111 450.46769359037876L902.621962807111 438.22279609018034Q902.621962807111 432.2987600310566 900.5811465570779 428.018714840015Q898.5403303070449 423.7103249788341 893.3249110014048 421.38606202740755Q888.137836365904 419.03345440584167 878.528993188665 419.03345440584167L878.528993188665 419.03345440584167Q869.3453200635163 419.03345440584167 863.9314880669008 421.38606202740755Q858.5460007404246 423.7103249788341 856.3918058098342 427.39513209694934Q854.2376108792437 431.0799392150646 854.2376108792437 435.55839709708164L854.2376108792437 435.55839709708164L854.2376108792437 438.6196214721312L836.8906727539626 438.6196214721312Q836.6922600629872 437.5992133471147 836.6922600629872 436.57880522209814Q836.6922600629872 435.55839709708164 836.6922600629872 434.1411635901142L836.6922600629872 434.1411635901142Q836.6922600629872 424.3339077218997 842.1060920596027 417.7012549092923Q847.5199240562182 411.0686020966848 857.2988352542933 407.69558635010236Q867.1060911225078 404.3225706035199 879.747814004657 404.3225706035199L879.747814004657 404.3225706035199Q893.2398769909868 404.3225706035199 902.3101714355781 408.20579041261067Q911.3804658801696 412.08901022170136 915.9723024427441 419.2318670968171Q920.5641390053185 426.37472397193284 920.5641390053185 436.3803925311227L920.5641390053185 436.3803925311227L920.5641390053185 494.5436556570652Q920.5641390053185 498.4268754661559 922.4065425643761 499.9574876536807Q924.2489461234337 501.4880998412055 926.9133451165325 501.4880998412055L926.9133451165325 501.4880998412055L934.8498527555499 501.4880998412055L934.8498527555499 513.3078272893138Q932.0153857416151 514.5266481053056 928.5289913144752 515.4620222199042Q925.0709415574747 516.3690516643633 920.5641390053185 516.3690516643633L920.5641390053185 516.3690516643633Q915.2636856892603 516.3690516643633 911.8056359322599 514.2432014039122Q908.31924150512 512.0890064733217 906.5051826162018 508.31916534478836Q904.6627790571441 504.5493242162551 904.0391963140784 499.8441089731233L904.0391963140784 499.8441089731233L902.621962807111 499.8441089731233Q898.9371556889957 504.946149598206 893.3249110014048 508.7159907267393Q887.7126663138139 512.4858318552726 880.7682221296736 514.5266481053056Q873.8521226156727 516.5674643553386 865.6888576155403 516.5674643553386ZM870.1673154975573 501.4880998412055L870.1673154975573 501.4880998412055Q876.6865896296074 501.4880998412055 882.5255916783132 499.4472835911724Q888.3362490568795 497.4064673411394 892.8147069388966 493.60828154246667Q897.3215094910529 489.83844041393337 899.9575638140122 484.53798709787526Q902.621962807111 479.23753378181715 902.621962807111 472.91667234074254L902.621962807111 472.91667234074254L902.621962807111 463.93141190656917Q886.097020115871 463.93141190656917 874.4473606885989 465.7738154656268Q862.8260459314662 467.5878743545451 856.5902185008096 472.29308959767684Q850.3827357402923 476.99830484080866 850.3827357402923 485.5583952228918L850.3827357402923 485.5583952228918Q850.3827357402923 491.05726122992536 852.8203773722763 494.5436556570652Q855.2580190042603 498.00170541406567 859.7648215564166 499.73073029256585Q864.2432794384337 501.4880998412055 870.1673154975573 501.4880998412055ZM967.9280828081693 514.1298227233548L949.9575619398224 514.1298227233548L949.9575619398224 366.56746997790816L967.9280828081693 366.56746997790816L967.9280828081693 420.2522752218336L969.3453163151365 420.2522752218336Q973.4269488152028 414.75340921480006 978.5289894402854 411.26701478766023Q983.631030065368 407.80896503065975 989.8668574960246 406.0799401521595Q996.0743402565419 404.3225706035199 1003.4439544927724 404.3225706035199L1003.4439544927724 404.3225706035199Q1013.6480357429379 404.3225706035199 1021.3010966805618 407.80896503065975Q1028.954157618186 411.26701478766023 1033.3192368196455 419.03345440584167Q1037.7126606912443 426.7715493538837 1037.7126606912443 440.0368549790986L1037.7126606912443 440.0368549790986L1037.7126606912443 514.1298227233548L1019.770484493037 514.1298227233548L1019.770484493037 442.50284128122195Q1019.770484493037 435.75680978805707 1018.0131149443974 431.47676459701546Q1016.2840900658972 427.1967194059739 1013.336244371405 424.73073310385064Q1010.3600540067735 422.29309147186666 1006.1933874962892 421.27268334685016Q1001.9983763156657 420.2522752218336 996.896335690583 420.2522752218336L996.896335690583 420.2522752218336Q989.3566534335165 420.2522752218336 982.6106219403515 423.82370365939147Q975.892935117326 427.39513209694934 971.8963366276779 434.22619760053226Q967.9280828081693 441.0572631041152 967.9280828081693 451.06293166330505L967.9280828081693 451.06293166330505L967.9280828081693 514.1298227233548ZM1082.8090308829474 386.57880709628796L1064.8668546847398 386.57880709628796L1064.8668546847398 366.56746997790816L1082.8090308829474 366.56746997790816L1082.8090308829474 386.57880709628796ZM1082.8090308829474 514.1298227233548L1064.8668546847398 514.1298227233548L1064.8668546847398 406.78855690564325L1082.8090308829474 406.78855690564325L1082.8090308829474 514.1298227233548ZM1261.3804527608409 514.1298227233548L1145.8759219429971 514.1298227233548L1145.8759219429971 504.12415416416485L1230.768209010345 390.8588522873295L1151.176375259055 390.8588522873295L1151.176375259055 374.1354969051141L1259.5663938719226 374.1354969051141L1259.5663938719226 384.14116546430404L1174.44734944346 497.4064673411394L1261.3804527608409 497.4064673411394L1261.3804527608409 514.1298227233548ZM1309.9632173796836 516.5674643553386L1309.9632173796836 516.5674643553386Q1304.0391813205597 516.5674643553386 1298.1151452614358 515.1502308483714Q1292.2194538724516 513.7329973414039 1287.1174132473689 510.4450156052395Q1282.0153726222861 507.18537853921447 1278.9541482472368 501.3747211606481Q1275.892923872187 495.56406378208175 1275.892923872187 486.77721603888375L1275.892923872187 486.77721603888375Q1275.892923872187 475.7511393546773 1281.193377188245 468.6082824795616Q1286.4938305043033 461.46542560444584 1295.9892950009848 457.4971717849371Q1305.4847594976663 453.5289179654284 1318.5233077617668 451.99830577790357Q1331.5902006960064 450.46769359037876 1346.8963225712541 450.46769359037876L1346.8963225712541 450.46769359037876L1346.8963225712541 438.22279609018034Q1346.8963225712541 432.2987600310566 1344.8555063212211 428.018714840015Q1342.8146900711881 423.7103249788341 1337.6276154356874 421.38606202740755Q1332.4121961300475 419.03345440584167 1322.8316976229476 419.03345440584167L1322.8316976229476 419.03345440584167Q1313.6480244977988 419.03345440584167 1308.2341925011833 421.38606202740755Q1302.8203605045678 423.7103249788341 1300.6661655739772 427.39513209694934Q1298.5403153135262 431.0799392150646 1298.5403153135262 435.55839709708164L1298.5403153135262 435.55839709708164L1298.5403153135262 438.6196214721312L1281.193377188245 438.6196214721312Q1280.9949644972698 437.5992133471147 1280.9949644972698 436.57880522209814Q1280.9949644972698 435.55839709708164 1280.9949644972698 434.1411635901142L1280.9949644972698 434.1411635901142Q1280.9949644972698 424.3339077218997 1286.3804518237457 417.7012549092923Q1291.7942838203612 411.0686020966848 1301.601539688576 407.69558635010236Q1311.380450886651 404.3225706035199 1324.0505184389394 404.3225706035199L1324.0505184389394 404.3225706035199Q1337.5142367551298 404.3225706035199 1346.5845311997214 408.20579041261067Q1355.6831703144521 412.08901022170136 1360.2750068770265 419.2318670968171Q1364.8668434396009 426.37472397193284 1364.8668434396009 436.3803925311227L1364.8668434396009 436.3803925311227L1364.8668434396009 494.5436556570652Q1364.8668434396009 498.4268754661559 1366.7092469986587 499.9574876536807Q1368.523305887577 501.4880998412055 1371.1877048806755 501.4880998412055L1371.1877048806755 501.4880998412055L1379.1525571898324 501.4880998412055L1379.1525571898324 513.3078272893138Q1376.2897455057582 514.5266481053056 1372.8316957487577 515.4620222199042Q1369.345301321618 516.3690516643633 1364.8668434396009 516.3690516643633L1364.8668434396009 516.3690516643633Q1359.5663901235425 516.3690516643633 1356.0799956964029 514.2432014039122Q1352.6219459394024 512.0890064733217 1350.779542380345 508.31916534478836Q1348.9371388212871 504.5493242162551 1348.3419007483608 499.8441089731233L1348.3419007483608 499.8441089731233L1346.8963225712541 499.8441089731233Q1343.2398601232785 504.946149598206 1337.6276154356874 508.7159907267393Q1332.0153707480963 512.4858318552726 1325.0709265639562 514.5266481053056Q1318.126482379816 516.5674643553386 1309.9632173796836 516.5674643553386ZM1314.4416752617003 501.4880998412055L1314.4416752617003 501.4880998412055Q1320.9892940638902 501.4880998412055 1326.7999514424564 499.4472835911724Q1332.6106088210227 497.4064673411394 1337.117411373179 493.60828154246667Q1341.5958692551962 489.83844041393337 1344.2602682482948 484.53798709787526Q1346.8963225712541 479.23753378181715 1346.8963225712541 472.91667234074254L1346.8963225712541 472.91667234074254L1346.8963225712541 463.93141190656917Q1330.371379880014 463.93141190656917 1318.7500651228816 465.7738154656268Q1307.1004056956094 467.5878743545451 1300.892922935092 472.29308959767684Q1294.6570955044353 476.99830484080866 1294.6570955044353 485.5583952228918L1294.6570955044353 485.5583952228918Q1294.6570955044353 491.05726122992536 1297.0947371364196 494.5436556570652Q1299.560723438543 498.00170541406567 1304.0391813205597 499.73073029256585Q1308.545983872716 501.4880998412055 1314.4416752617003 501.4880998412055ZM1412.202442572312 514.1298227233548L1394.260266374105 514.1298227233548L1394.260266374105 406.78855690564325L1408.744392815312 406.78855690564325L1410.3600390132547 422.91667421493236L1411.8056171903613 422.91667421493236Q1415.8872496904278 416.3690554127429 1420.9892903155105 412.2874229126768Q1426.0913309405933 408.20579041261067 1432.2137796906923 406.278352843135Q1438.3362284407913 404.3225706035199 1445.479085315907 404.3225706035199L1445.479085315907 404.3225706035199Q1455.881579257048 404.3225706035199 1463.4212615141146 408.5175817841435Q1470.9892884413202 412.712592964767 1474.6457508892963 422.91667421493236L1474.6457508892963 422.91667421493236L1475.8929163754278 422.91667421493236Q1479.747791514379 416.3690554127429 1484.8498321394618 412.4008015932342Q1489.9518727645445 408.4042031035861 1496.3010788757583 406.363386853553Q1502.621940316833 404.3225706035199 1509.7647971919487 404.3225706035199L1509.7647971919487 404.3225706035199Q1519.5437083900238 404.3225706035199 1526.9133226262547 407.69558635010236Q1534.2545921923456 411.0686020966848 1538.4212587028296 418.72166303430885Q1542.6162698834532 426.37472397193284 1542.6162698834532 439.2432042151969L1542.6162698834532 439.2432042151969L1542.6162698834532 514.1298227233548L1524.6457490151065 514.1298227233548L1524.6457490151065 442.0776712291317Q1524.6457490151065 435.55839709708164 1523.1151368275819 431.27835190604003Q1521.5845246400572 426.9983067149985 1518.7500576261223 424.6456990934326Q1515.8872459420481 422.29309147186666 1512.1174048135144 421.27268334685016Q1508.319219014842 420.2522752218336 1504.0391738238004 420.2522752218336L1504.0391738238004 420.2522752218336Q1496.8963169486847 420.2522752218336 1490.8872468791428 423.93708233994886Q1484.8498321394618 427.59354478792477 1481.1933696914857 434.5379889720651Q1477.5085625733705 441.4824331562054 1477.5085625733705 451.06293166330505L1477.5085625733705 451.06293166330505L1477.5085625733705 514.1298227233548L1459.5663863751633 514.1298227233548L1459.5663863751633 442.0776712291317Q1459.5663863751633 435.55839709708164 1457.922395507081 431.27835190604003Q1456.2784046389988 426.9983067149985 1453.6423503160395 424.6456990934326Q1450.9779513229405 422.29309147186666 1447.2081101944073 421.27268334685016Q1443.438269065874 420.2522752218336 1439.356636565808 420.2522752218336L1439.356636565808 420.2522752218336Q1432.0153669997167 420.2522752218336 1425.77953956906 423.93708233994886Q1419.5437121384039 427.59354478792477 1415.8872496904278 434.5379889720651Q1412.202442572312 441.4824331562054 1412.202442572312 451.06293166330505L1412.202442572312 451.06293166330505L1412.202442572312 514.1298227233548ZM1596.6979005093299 516.5674643553386L1596.6979005093299 516.5674643553386Q1590.773864450206 516.5674643553386 1584.8498283910822 515.1502308483714Q1578.954137002098 513.7329973414039 1573.8520963770152 510.4450156052395Q1568.7500557519325 507.18537853921447 1565.6888313768827 501.3747211606481Q1562.627607001833 495.56406378208175 1562.627607001833 486.77721603888375L1562.627607001833 486.77721603888375Q1562.627607001833 475.7511393546773 1567.9280603178913 468.6082824795616Q1573.2285136339492 461.46542560444584 1582.7239781306312 457.4971717849371Q1592.2194426273127 453.5289179654284 1605.2579908914126 451.99830577790357Q1618.3248838256523 450.46769359037876 1633.6310057009 450.46769359037876L1633.6310057009 450.46769359037876L1633.6310057009 438.22279609018034Q1633.6310057009 432.2987600310566 1631.5901894508675 428.018714840015Q1629.549373200834 423.7103249788341 1624.3622985653333 421.38606202740755Q1619.1468792596934 419.03345440584167 1609.5663807525934 419.03345440584167L1609.5663807525934 419.03345440584167Q1600.3827076274451 419.03345440584167 1594.9688756308292 421.38606202740755Q1589.5550436342137 423.7103249788341 1587.4008487036235 427.39513209694934Q1585.274998443172 431.0799392150646 1585.274998443172 435.55839709708164L1585.274998443172 435.55839709708164L1585.274998443172 438.6196214721312L1567.9280603178913 438.6196214721312Q1567.7296476269157 437.5992133471147 1567.7296476269157 436.57880522209814Q1567.7296476269157 435.55839709708164 1567.7296476269157 434.1411635901142L1567.7296476269157 434.1411635901142Q1567.7296476269157 424.3339077218997 1573.115134953392 417.7012549092923Q1578.5289669500075 411.0686020966848 1588.3362228182218 407.69558635010236Q1598.115134016297 404.3225706035199 1610.7852015685858 404.3225706035199L1610.7852015685858 404.3225706035199Q1624.2489198847761 404.3225706035199 1633.3192143293672 408.20579041261067Q1642.4178534440985 412.08901022170136 1647.0096900066728 419.2318670968171Q1651.6015265692472 426.37472397193284 1651.6015265692472 436.3803925311227L1651.6015265692472 436.3803925311227L1651.6015265692472 494.5436556570652Q1651.6015265692472 498.4268754661559 1653.4439301283046 499.9574876536807Q1655.2579890172228 501.4880998412055 1657.9223880103218 501.4880998412055L1657.9223880103218 501.4880998412055L1665.8872403194787 501.4880998412055L1665.8872403194787 513.3078272893138Q1663.024428635404 514.5266481053056 1659.566378878404 515.4620222199042Q1656.079984451264 516.3690516643633 1651.6015265692472 516.3690516643633L1651.6015265692472 516.3690516643633Q1646.3010732531889 516.3690516643633 1642.8146788260492 514.2432014039122Q1639.3566290690487 512.0890064733217 1637.5142255099909 508.31916534478836Q1635.6718219509335 504.5493242162551 1635.076583878007 499.8441089731233L1635.076583878007 499.8441089731233L1633.6310057009 499.8441089731233Q1629.9745432529244 504.946149598206 1624.3622985653333 508.7159907267393Q1618.7500538777426 512.4858318552726 1611.8056096936025 514.5266481053056Q1604.861165509462 516.5674643553386 1596.6979005093299 516.5674643553386ZM1601.1763583913466 501.4880998412055L1601.1763583913466 501.4880998412055Q1607.723977193536 501.4880998412055 1613.5346345721023 499.4472835911724Q1619.345291950669 497.4064673411394 1623.852094502825 493.60828154246667Q1628.3305523848421 489.83844041393337 1630.9949513779407 484.53798709787526Q1633.6310057009 479.23753378181715 1633.6310057009 472.91667234074254L1633.6310057009 472.91667234074254L1633.6310057009 463.93141190656917Q1617.1060630096604 463.93141190656917 1605.4847482525274 465.7738154656268Q1593.8350888252558 467.5878743545451 1587.6276060647383 472.29308959767684Q1581.3917786340817 476.99830484080866 1581.3917786340817 485.5583952228918L1581.3917786340817 485.5583952228918Q1581.3917786340817 491.05726122992536 1583.8294202660654 494.5436556570652Q1586.2954065681888 498.00170541406567 1590.773864450206 499.73073029256585Q1595.2806670023624 501.4880998412055 1601.1763583913466 501.4880998412055ZM1698.9371257019584 514.1298227233548L1680.9949495037513 514.1298227233548L1680.9949495037513 406.78855690564325L1695.479075944958 406.78855690564325L1697.094722142901 422.91667421493236L1698.5403003200076 422.91667421493236Q1702.8203455110493 416.3690554127429 1708.2341775076643 412.2874229126768Q1713.6480095042803 408.20579041261067 1720.2806623168876 406.278352843135Q1726.913315129495 404.3225706035199 1734.4529973865615 404.3225706035199L1734.4529973865615 404.3225706035199Q1744.657078636727 404.3225706035199 1752.310139574351 407.80896503065975Q1759.9632005119752 411.26701478766023 1764.356624383574 419.03345440584167Q1768.7500482551732 426.7715493538837 1768.7500482551732 440.0368549790986L1768.7500482551732 440.0368549790986L1768.7500482551732 514.1298227233548L1750.7795273868264 514.1298227233548L1750.7795273868264 442.50284128122195Q1750.7795273868264 435.75680978805707 1749.0505025083262 431.47676459701546Q1747.321477629826 427.1967194059739 1744.3452872651942 424.73073310385064Q1741.397441570702 422.29309147186666 1737.2024303900785 421.27268334685016Q1733.035763879594 420.2522752218336 1727.9337232545117 420.2522752218336L1727.9337232545117 420.2522752218336Q1720.3656963273056 420.2522752218336 1713.6480095042803 423.93708233994886Q1706.9019780111153 427.59354478792477 1702.9337241916064 434.5379889720651Q1698.9371257019584 441.4824331562054 1698.9371257019584 451.06293166330505L1698.9371257019584 451.06293166330505L1698.9371257019584 514.1298227233548Z " fill="#ffffff" transform="matrix(0.49469959194526,0,0,0.49469959194526,0,81.5567361593147)"/></g></svg>